<?xml version="1.0" encoding="UTF-8" standalone="no"?>
<svg
   width="512"
   height="512"
   viewBox="0 0 135.46666 135.46667"
   version="1.1"
   id="svg5"
   xmlns="http://www.w3.org/2000/svg">
  <rect
     style="fill:#000000;fill-opacity:1;stroke:none;stroke-width:5.29167;stroke-linecap:round;stroke-linejoin:round;stroke-miterlimit:4;stroke-dasharray:none;stroke-opacity:1"
     id="rect846"
     width="135.46666"
     height="135.46666"
     x="0"
     y="0"
     rx="27.092333"
     ry="27.092333" />
  <g
     transform="matrix(0.90072708,0,0,0.90072708,6.7261584,6.7261583)">
    <path
       d="m 67.733331,27.093333 c -22.437497,0 -40.639998,18.2025 -40.639998,40.64 0,22.4375 18.202501,40.639997 40.639998,40.639997 22.437499,0 40.639999,-18.202497 40.639999,-40.639997 0,-22.4375 -18.2025,-40.64 -40.639999,-40.64 z m 0,7.02 c 18.566667,0 33.619999,15.053334 33.619999,33.62 0,18.566666 -15.053332,33.619997 -33.619999,33.619997 -18.566664,0 -33.619998,-15.053331 -33.619998,-33.619997 0,-18.566666 15.053334,-33.62 33.619998,-33.62 z"
       style="fill:#ffffff;fill-opacity:1;stroke-width:0.264583"
       id="path859" />
    <path
       d="m 81.903331,67.733333 -28.27,0 0,-4.233333 28.27,0 z"
       style="fill:#ffffff;fill-opacity:1;stroke-width:0.264583"
       id="path861" />
    <path
       d="m 69.766664,83.900001 0,-32.386667 4.233333,0 0,32.386667 z"
       style="fill:#ffffff;fill-opacity:1;stroke-width:0.264583"
       id="path863" />
  </g>
  <text
     xml:space="preserve"
     style="font-style:normal;font-weight:normal;font-size:23.8125px;line-height:1.25;font-family:sans-serif;fill:#ffffff;fill-opacity:1;stroke:none;stroke-width:0.264583"
     x="14.552083"
     y="119.0625"
     id="text2717"><tspan
       id="tspan2715"
       x="14.552083"
       y="119.0625"
       style="font-style:normal;font-variant:normal;font-weight:bold;font-stretch:normal;font-size:23.8125px;font-family:'Varela Round';-inkscape-font-specification:'Varela Round Bold';fill:#ffffff;stroke-width:0.264583">Qyuqa</tspan></text>
</svg>